<mxfile host="65bd71144e">
    <diagram id="rsRk7D53C57cZufdw66D" name="Page-1">
        <mxGraphModel dx="1593" dy="654" grid="1" gridSize="10" guides="1" tooltips="1" connect="1" arrows="1" fold="1" page="1" pageScale="1" pageWidth="850" pageHeight="1100" math="0" shadow="0">
            <root>
                <mxCell id="0"/>
                <mxCell id="1" parent="0"/>
                <mxCell id="2" value="" style="edgeStyle=none;html=1;" edge="1" parent="1" source="3" target="5">
                    <mxGeometry relative="1" as="geometry"/>
                </mxCell>
                <mxCell id="3" value="Start" style="strokeWidth=2;html=1;shape=mxgraph.flowchart.terminator;whiteSpace=wrap;" vertex="1" parent="1">
                    <mxGeometry x="310" y="30" width="100" height="60" as="geometry"/>
                </mxCell>
                <mxCell id="4" value="" style="edgeStyle=none;html=1;" edge="1" parent="1" source="5" target="23">
                    <mxGeometry relative="1" as="geometry"/>
                </mxCell>
                <mxCell id="5" value="Assign &quot;y&quot; to keep_going" style="rounded=1;whiteSpace=wrap;html=1;absoluteArcSize=1;arcSize=14;strokeWidth=2;" vertex="1" parent="1">
                    <mxGeometry x="245" y="120" width="230" height="80" as="geometry"/>
                </mxCell>
                <mxCell id="6" value="" style="edgeStyle=none;html=1;" edge="1" parent="1" source="8" target="9">
                    <mxGeometry relative="1" as="geometry"/>
                </mxCell>
                <mxCell id="7" style="edgeStyle=none;html=1;exitX=1;exitY=0.5;exitDx=0;exitDy=0;exitPerimeter=0;entryX=0.5;entryY=0;entryDx=0;entryDy=0;" edge="1" parent="1" source="8" target="13">
                    <mxGeometry relative="1" as="geometry">
                        <Array as="points">
                            <mxPoint x="615" y="350"/>
                        </Array>
                    </mxGeometry>
                </mxCell>
                <mxCell id="8" value="keep_going == &quot;y&quot;" style="strokeWidth=2;html=1;shape=mxgraph.flowchart.decision;whiteSpace=wrap;" vertex="1" parent="1">
                    <mxGeometry x="300" y="290" width="120" height="120" as="geometry"/>
                </mxCell>
                <mxCell id="9" value="End" style="strokeWidth=2;html=1;shape=mxgraph.flowchart.terminator;whiteSpace=wrap;" vertex="1" parent="1">
                    <mxGeometry x="310" y="460" width="100" height="60" as="geometry"/>
                </mxCell>
                <mxCell id="10" value="True" style="text;strokeColor=none;align=center;fillColor=none;html=1;verticalAlign=middle;whiteSpace=wrap;rounded=0;" vertex="1" parent="1">
                    <mxGeometry x="425" y="310" width="60" height="30" as="geometry"/>
                </mxCell>
                <mxCell id="11" value="False" style="text;strokeColor=none;align=center;fillColor=none;html=1;verticalAlign=middle;whiteSpace=wrap;rounded=0;" vertex="1" parent="1">
                    <mxGeometry x="290" y="410" width="60" height="30" as="geometry"/>
                </mxCell>
                <mxCell id="25" style="edgeStyle=none;html=1;exitX=0.5;exitY=1;exitDx=0;exitDy=0;" edge="1" parent="1" source="13" target="17">
                    <mxGeometry relative="1" as="geometry"/>
                </mxCell>
                <mxCell id="13" value="Promt the user to enter the item's &lt;br&gt;wholesale cost and assign it to&amp;nbsp;wholesale" style="shape=parallelogram;html=1;strokeWidth=2;perimeter=parallelogramPerimeter;whiteSpace=wrap;rounded=1;arcSize=12;size=0.23;" vertex="1" parent="1">
                    <mxGeometry x="440" y="400" width="350" height="70" as="geometry"/>
                </mxCell>
                <mxCell id="16" value="" style="edgeStyle=none;html=1;" edge="1" parent="1" source="17" target="19">
                    <mxGeometry relative="1" as="geometry"/>
                </mxCell>
                <mxCell id="17" value="&amp;nbsp;retail_price =&amp;nbsp; wholesale*2.5" style="rounded=1;whiteSpace=wrap;html=1;absoluteArcSize=1;arcSize=14;strokeWidth=2;" vertex="1" parent="1">
                    <mxGeometry x="510" y="520" width="210" height="80" as="geometry"/>
                </mxCell>
                <mxCell id="18" value="" style="edgeStyle=none;html=1;" edge="1" parent="1" source="19" target="21">
                    <mxGeometry relative="1" as="geometry"/>
                </mxCell>
                <mxCell id="19" value="Display the retail_price" style="shape=parallelogram;html=1;strokeWidth=2;perimeter=parallelogramPerimeter;whiteSpace=wrap;rounded=1;arcSize=12;size=0.23;" vertex="1" parent="1">
                    <mxGeometry x="500" y="640" width="230" height="60" as="geometry"/>
                </mxCell>
                <mxCell id="20" style="edgeStyle=none;html=1;exitX=0.5;exitY=1;exitDx=0;exitDy=0;entryX=1;entryY=0.5;entryDx=0;entryDy=0;entryPerimeter=0;" edge="1" parent="1" source="21" target="23">
                    <mxGeometry relative="1" as="geometry">
                        <Array as="points">
                            <mxPoint x="615" y="960"/>
                            <mxPoint x="800" y="960"/>
                            <mxPoint x="800" y="250"/>
                        </Array>
                    </mxGeometry>
                </mxCell>
                <mxCell id="21" value="Promt the user :&amp;nbsp;'Do you have &lt;br&gt;another item? (Enter y for yes): ' and &lt;br&gt;assign the input to keep_going" style="shape=parallelogram;html=1;strokeWidth=2;perimeter=parallelogramPerimeter;whiteSpace=wrap;rounded=1;arcSize=12;size=0.23;" vertex="1" parent="1">
                    <mxGeometry x="452.5" y="750" width="325" height="130" as="geometry"/>
                </mxCell>
                <mxCell id="22" value="" style="edgeStyle=none;html=1;" edge="1" parent="1" source="23" target="8">
                    <mxGeometry relative="1" as="geometry"/>
                </mxCell>
                <mxCell id="23" value="" style="strokeWidth=2;html=1;shape=mxgraph.flowchart.start_2;whiteSpace=wrap;" vertex="1" parent="1">
                    <mxGeometry x="350" y="240" width="20" height="20" as="geometry"/>
                </mxCell>
            </root>
        </mxGraphModel>
    </diagram>
</mxfile>